<svg xmlns="http://www.w3.org/2000/svg" viewBox="0 0 30 30">
<defs><style>.cls-1{fill:#231f20;}</style></defs>
<title>amazee-io</title>
<path class="cls-1" d="M15,0A15,15,0,1,0,30,15,15,15,0,0,0,15,0ZM9.8,18.36a.79.79,0,0,1-.79.79H8.82A.79.79,0,0,1,8,18.36V11.64a.79.79,0,0,1,.79-.79H9a.79.79,0,0,1,.79.79Zm6.93-9.84L13.19,21.74a.51.51,0,0,1-.48.37h-.32a.5.5,0,0,1-.48-.63L15.45,8.26a.5.5,0,0,1,.48-.36h.32A.49.49,0,0,1,16.73,8.52Zm6.69,8.16c0,2.35-1.55,2.68-2.46,2.68h-.19c-.91,0-2.46-.33-2.46-2.68V13.32c0-2.35,1.55-2.68,2.46-2.68H21c.91,0,2.46.33,2.46,2.68Zm-1.77-3.45v3.54a.82.82,0,0,1-.78.87.83.83,0,0,1-.79-.87V13.23a.83.83,0,0,1,.79-.87A.82.82,0,0,1,21.65,13.23Z" />
</svg>
