<svg width="40" height="40" xmlns="http://www.w3.org/2000/svg"><path d="M26.285 20.175c0-1.813-.641-3.361-1.924-4.644s-2.83-1.924-4.644-1.924c-1.813 0-3.361.641-4.644 1.924s-1.924 2.831-1.924 4.644c0 1.813.641 3.361 1.924 4.644s2.831 1.924 4.644 1.924c1.813 0 3.361-.641 4.644-1.924s1.924-2.83 1.924-4.644zm13.136-2.797v5.696a.989.989 0 01-.205.59.781.781 0 01-.513.334l-4.746.718c-.325.924-.659 1.702-1.001 2.335.599.855 1.514 2.036 2.745 3.54.171.206.257.42.257.642 0 .223-.077.42-.231.59-.462.633-1.309 1.557-2.54 2.771-1.232 1.215-2.036 1.822-2.412 1.822-.205 0-.427-.077-.667-.231l-3.54-2.771c-.753.393-1.531.718-2.335.975-.274 2.326-.522 3.917-.744 4.772-.12.479-.428.719-.924.719h-5.696a.97.97 0 01-.628-.219.76.76 0 01-.296-.551l-.718-4.721a15.857 15.857 0 01-2.309-.95L9.3 36.186a.923.923 0 01-.641.23.884.884 0 01-.641-.281c-2.156-1.95-3.567-3.387-4.234-4.31a1.003 1.003 0 01.026-1.18c.256-.36.693-.929 1.308-1.707a54.161 54.161 0 001.386-1.809 12.695 12.695 0 01-1.052-2.54l-4.695-.693a.809.809 0 01-.54-.32.97.97 0 01-.204-.603v-5.696c0-.205.068-.402.205-.59.137-.188.3-.3.487-.334l4.773-.718c.239-.787.573-1.574 1-2.36-.684-.976-1.6-2.156-2.745-3.541-.171-.206-.257-.41-.257-.616 0-.171.077-.368.231-.59.445-.616 1.287-1.535 2.527-2.758 1.24-1.223 2.049-1.835 2.425-1.835.222 0 .445.086.667.257l3.54 2.745c.753-.393 1.532-.718 2.335-.975.274-2.326.522-3.917.744-4.772.12-.479.428-.718.924-.718h5.696a.97.97 0 01.629.218.76.76 0 01.295.551l.718 4.721c.838.274 1.608.59 2.31.95l3.642-2.746c.154-.154.36-.23.616-.23.222 0 .436.085.642.256 2.206 2.035 3.617 3.49 4.233 4.362.12.136.18.325.18.564a.989.989 0 01-.206.59c-.256.36-.692.928-1.308 1.706a54.162 54.162 0 00-1.386 1.81c.445.854.796 1.692 1.052 2.513l4.695.719a.809.809 0 01.54.32.97.97 0 01.204.603z" fill="#FFF" fill-rule="nonzero"/></svg>