<svg id="Layer_9" data-name="Layer 9" xmlns="http://www.w3.org/2000/svg" viewBox="0 0 38 40"><defs><style>.cls-1{fill:#f5f6fb;}</style></defs><title>containers</title><path class="cls-1" d="M38,6.86a.19.19,0,0,0,0-.08,1.07,1.07,0,0,0-.13-.31l0-.06a1,1,0,0,0-.21-.2l0,0-9-6a1,1,0,0,0-1.1,0L19,5.8,10.55.17a1,1,0,0,0-1.1,0l-9,6,0,0a1,1,0,0,0-.21.21l0,0A1.07,1.07,0,0,0,0,6.78a.19.19,0,0,0,0,.08A.68.68,0,0,0,0,7V17a1,1,0,0,0,.45.83L9,23.53V33a1,1,0,0,0,.45.83l9,6,0,0,0,0,.12,0,.08,0a.93.93,0,0,0,.54,0l.08,0,.12,0,0,0,0,0,9-6A1,1,0,0,0,29,33V23.53l8.55-5.7A1,1,0,0,0,38,17V7A.68.68,0,0,0,38,6.86ZM28,2.2,35.2,7,28,11.8,20.8,7ZM19,27.8,11.8,23,19,18.2,26.2,23Zm8-6.67-7-4.67V8.87l7,4.66Zm-9-4.67-7,4.67v-7.6l7-4.66ZM10,2.2,17.2,7,10,11.8,2.8,7ZM2,8.87l7,4.66v7.6L2,16.46Zm9,16,7,4.66v7.6l-7-4.67Zm16,7.59-7,4.67v-7.6l7-4.66Zm9-16-7,4.67v-7.6l7-4.66Z"/></svg>