<svg id="Layer_1" data-name="Layer 1" xmlns="http://www.w3.org/2000/svg" viewBox="0 0 34 33"><defs><style>.cls-1{fill:#5f6f7a;}</style></defs><title>created</title><path class="cls-1" d="M32,1H26V0H24V1H10V0H8V1H2A2,2,0,0,0,0,3V31a2,2,0,0,0,2,2H32a2,2,0,0,0,2-2V3A2,2,0,0,0,32,1ZM3,3H8V6h2V3H24V6h2V3h5a1,1,0,0,1,1,1V9H2V4A1,1,0,0,1,3,3ZM31,31H3a1,1,0,0,1-1-1V11H32V30A1,1,0,0,1,31,31ZM12,22h2v2H12Zm4,4h2v2H16Zm-4,0h2v2H12Zm0-8h2v2H12Zm0-4h2v2H12ZM8,14h2v2H8ZM4,18H6v2H4Zm0,4H6v2H4Zm0,4H6v2H4Zm4,0h2v2H8Zm0-8h2v2H8Zm0,4h2v2H8Zm12,4h2v2H20Zm4-12h2v2H24Zm4,8h2v2H28Zm-4-4h2v2H24Zm0,4h2v2H24Zm-8,0h2v2H16Zm12-8h2v2H28Zm0,4h2v2H28Zm-8,4h2v2H20Zm4,4h2v2H24Zm-8-8h2v2H16Zm0-4h2v2H16Zm4,4h2v2H20Zm0-4h2v2H20Z"/></svg>