<svg id="Layer_7" data-name="Layer 7" xmlns="http://www.w3.org/2000/svg" viewBox="0 0 42 33"><defs><style>.cls-1{fill:#f5f6fb;}</style></defs><title>deployments</title><path class="cls-1" d="M27.83,8.55l-7.95,12a.58.58,0,0,1-.1.12s0,0,0,0h0a1,1,0,0,1-.29.19l-.07,0a1.14,1.14,0,0,1-.33.06h0a1.35,1.35,0,0,1-.34-.06l-.09-.05-.12-.06s-.05-.05-.07-.07l-.09-.05-4.07-4.07a1,1,0,0,1,1.42-1.42l3.2,3.21,7.28-11a1,1,0,1,1,1.66,1.1ZM42,3V26a3,3,0,0,1-3,3H3a3,3,0,0,1-3-3V3A3,3,0,0,1,3,0H39A3,3,0,0,1,42,3ZM40,3a1,1,0,0,0-1-1H3A1,1,0,0,0,2,3V26a1,1,0,0,0,1,1H39a1,1,0,0,0,1-1ZM28,31H14a1,1,0,0,0,0,2H28a1,1,0,0,0,0-2Z"/></svg>