<svg id="Layer_27" data-name="Layer 27" xmlns="http://www.w3.org/2000/svg" viewBox="0 0 41.85 37.84"><defs><style>.cls-1{fill:#5f6f7a;}</style></defs><title>environments-in-use</title><path class="cls-1" d="M41.56,12.17a1,1,0,0,0,0-1.41L38.79,8h0a1,1,0,0,0-.71-.29,1,1,0,0,0-.7.29l-.7.7L36,8a1,1,0,0,0,0-1.41L32.55,3.14h0a9.5,9.5,0,0,0-12.45-1.4,1,1,0,0,0-.4.86,1,1,0,0,0,.49.8,36.81,36.81,0,0,1,5.46,4.13s-.08.06-.11.1C24,9.17,20.1,12.65,16.36,16s-7.71,6.91-9.31,8.51L.63,31h0a2.14,2.14,0,0,0,0,3l3.22,3.22h0a2.18,2.18,0,0,0,1.51.63,2.13,2.13,0,0,0,1.51-.63l6.43-6.44c1.6-1.61,4.92-5.33,8.44-9.27,3.36-3.76,6.84-7.66,8.43-9.25l.1-.12.12.12a1,1,0,0,0,.71.29,1,1,0,0,0,.7-.29l.66.67-.7.7a1,1,0,0,0,0,1.41l2.77,2.78h0a1,1,0,0,0,.71.29,1.05,1.05,0,0,0,.71-.29ZM5.45,35.8a.19.19,0,0,1-.1,0l-.1,0L2,32.57a.14.14,0,0,1,0-.19h0l.11-.12,6.3-6.3c1.56-1.57,5.45-5.06,9.22-8.44S25.36,10.62,26.94,9A.13.13,0,0,1,27,9a.11.11,0,0,1,.09,0h0l1.61,1.61c.09.09.06.14,0,.2-1.62,1.63-5.12,5.54-8.5,9.33s-6.8,7.61-8.37,9.18L6.33,34.91c-.36.36-.66.66-.86.91ZM33.87,14.33l.7-.71a1,1,0,0,0,0-1.41L32.5,10.13h0a1,1,0,0,0-1.41,0L27.64,6.67l0,0a35.84,35.84,0,0,0-5-4.06c1.78-.77,5.12-1.42,8.49,2h0l2.76,2.76a1,1,0,0,0,0,1.41L36,10.81h0a1,1,0,0,0,.71.29,1.05,1.05,0,0,0,.71-.29l.69-.7,1.36,1.35-4.21,4.23Z"/></svg>