<svg id="Layer_13" data-name="Layer 13" xmlns="http://www.w3.org/2000/svg" xmlns:xlink="http://www.w3.org/1999/xlink" viewBox="0 0 76.44 97.46"><defs><style>.cls-1{fill:url(#linear-gradient);}</style><linearGradient id="linear-gradient" x1="38.22" y1="97.46" x2="38.22" gradientUnits="userSpaceOnUse"><stop offset="0.15" stop-color="#2bc0d8"/><stop offset="0.85" stop-color="#497ffa"/></linearGradient></defs><title>environment-pull-request-hover</title><path class="cls-1" d="M66.21,71.48c-.15-4.8-1.19-10.9-8.26-18L39,34.64h4.79a3,3,0,0,0,0-6h-12a3,3,0,0,0-3,3v12a3,3,0,0,0,6,0V38.86l19,18.92c5.42,5.4,6.34,9.81,6.5,13.72a13.19,13.19,0,1,0,6,0Zm-3,20a7.17,7.17,0,1,1,7.2-7.17A7.19,7.19,0,0,1,63.24,91.46ZM26.39,13.16A13.2,13.2,0,1,0,10.2,26V71.49a13.19,13.19,0,1,0,6,0V26A13.18,13.18,0,0,0,26.39,13.16ZM6,13.16a7.2,7.2,0,1,1,7.2,7.16A7.19,7.19,0,0,1,6,13.16ZM20.39,84.29a7.2,7.2,0,1,1-7.19-7.16A7.19,7.19,0,0,1,20.39,84.29Z"/></svg>