<svg id="Layer_8" data-name="Layer 8" xmlns="http://www.w3.org/2000/svg" viewBox="0 0 31 36"><defs><style>.cls-1{fill:#4fda9d;}</style></defs><title>events</title><path class="cls-1" d="M10,5A5,5,0,1,0,4,9.9v3.2a5,5,0,0,0,0,9.8v3.2a5,5,0,1,0,2,0V22.9a5,5,0,0,0,0-9.8V9.9A5,5,0,0,0,10,5ZM2,5A3,3,0,1,1,5,8,3,3,0,0,1,2,5ZM8,31a3,3,0,1,1-3-3A3,3,0,0,1,8,31ZM8,18a3,3,0,1,1-3-3A3,3,0,0,1,8,18ZM13,5a1,1,0,0,1,1-1H26a1,1,0,0,1,0,2H14A1,1,0,0,1,13,5ZM31,18a1,1,0,0,1-1,1H14a1,1,0,0,1,0-2H30A1,1,0,0,1,31,18ZM25,31a1,1,0,0,1-1,1H14a1,1,0,0,1,0-2H24A1,1,0,0,1,25,31Z"/></svg>
