<?xml version="1.0" encoding="utf-8"?>
<!-- Generator: Adobe Illustrator 25.1.0, SVG Export Plug-In . SVG Version: 6.00 Build 0)  -->
<svg version="1.1" id="Layer_1" xmlns="http://www.w3.org/2000/svg" xmlns:xlink="http://www.w3.org/1999/xlink" x="0px" y="0px"
	 viewBox="0 0 750 570" style="enable-background:new 0 0 750 570;" xml:space="preserve">
<style type="text/css">
	.st0{fill:#32C8B4;}
	.st1{fill:#3A3F46;}
	.st2{fill:#FFFFFF;}
</style>
<g>
	<polygon class="st0" points="716.12,265.84 716.12,141.05 608.05,78.65 499.97,141.05 499.97,265.84 608.05,328.24 	"/>
	<path class="st1" d="M283.14,266.17l0-212.33L467,159.95l0,213.45L283.14,266.17z M250.44,35L33.88,159.88l0.07,250.14L250.58,535
		l216.36-124.96l-216.5-125.07L250.44,35z"/>
	<g>
		<path class="st2" d="M568.4,244.42c0-41.95,49.1-49.42,49.1-65.79c0-7.94-6.36-11.28-12.24-11.28c-10.8,0-16.84,12.08-16.84,12.08
			l-20.66-13.83c0,0,10.49-24.47,40.05-24.47c18.59,0,38.77,10.65,38.77,34.8c0,35.44-45.77,42.27-46.56,56.89h48.31v23.84h-78.66
			C568.87,252.21,568.4,248.24,568.4,244.42z"/>
	</g>
</g>
</svg>
