<svg id="Layer_5" data-name="Layer 5" xmlns="http://www.w3.org/2000/svg" viewBox="0 0 29.77 39.71"><defs><style>.cls-1{fill:#5f6f7a;}</style></defs><title>pull-request</title><path class="cls-1" d="M25.75,29.42a10.12,10.12,0,0,0-3.2-7.4l-7.88-8.21h2.41a1,1,0,0,0,0-2H12.32a1,1,0,0,0-1,1v5a1,1,0,0,0,2,0V15.29l7.79,8.11a8.17,8.17,0,0,1,2.64,6,5.18,5.18,0,0,0-4,5.09,5,5,0,1,0,6-5.09Zm-1,8.29a3.2,3.2,0,0,1,0-6.39h.07a3.2,3.2,0,0,1,0,6.39Z"/><path class="cls-1" d="M10,5.19A5.11,5.11,0,0,0,5,0,5.11,5.11,0,0,0,0,5.19a5.16,5.16,0,0,0,4,5.09V29.42a5.17,5.17,0,0,0-4,5.09,5.11,5.11,0,0,0,5,5.2A5.22,5.22,0,0,0,6,29.42V10.28A5.15,5.15,0,0,0,10,5.19Zm-8,0A3.11,3.11,0,0,1,5,2,3.11,3.11,0,0,1,8,5.19a3.12,3.12,0,0,1-3,3.2A3.12,3.12,0,0,1,2,5.19ZM8,34.51a3.12,3.12,0,0,1-3,3.2,3.2,3.2,0,0,1,0-6.39A3.11,3.11,0,0,1,8,34.51Z"/></svg>