<svg id="Layer_26" data-name="Layer 26" xmlns="http://www.w3.org/2000/svg" viewBox="0 0 465.043 465.043"><defs><style>.cls-1{fill:#5f6f7a;}</style></defs><path class="cls-1" d="M455.043,222.521h-46.982c-5.016-89.007-76.533-160.524-165.54-165.54V10c0-5.523-4.478-10-10-10s-10,4.477-10,10v46.982 c-89.007,5.016-160.525,76.533-165.541,165.54H10c-5.522,0-10,4.477-10,10s4.478,10,10,10h46.981 c5.016,89.007,76.533,160.525,165.541,165.54v46.981c0,5.523,4.478,10,10,10s10-4.477,10-10v-46.981 c89.007-5.016,160.524-76.533,165.54-165.54h46.982c5.522,0,10-4.477,10-10S460.565,222.521,455.043,222.521z M388.022,222.521 h-37.765c-4.816-57.194-50.541-102.92-107.735-107.736V77.021C320.496,81.984,383.058,144.547,388.022,222.521z M222.521,242.521 v29.244c-14.309-3.648-25.596-14.935-29.244-29.244H222.521z M193.277,222.521c3.648-14.309,14.935-25.596,29.244-29.244v29.244 H193.277z M242.521,242.521h29.243c-3.648,14.309-14.935,25.595-29.243,29.244V242.521z M242.521,222.521v-29.244 c14.309,3.648,25.595,14.935,29.243,29.244H242.521z M222.521,172.867c-25.358,4.238-45.417,24.296-49.655,49.654h-38.004 c4.691-46.16,41.498-82.966,87.658-87.657V172.867z M172.867,242.521c4.238,25.358,24.296,45.416,49.655,49.654v38.003 c-46.16-4.692-82.967-41.498-87.658-87.657H172.867z M242.521,292.176c25.358-4.238,45.416-24.296,49.654-49.654h38.002 c-4.691,46.159-41.497,82.966-87.656,87.657V292.176z M292.175,222.521c-4.238-25.358-24.296-45.416-49.654-49.654v-38.003 c46.159,4.692,82.965,41.498,87.656,87.657H292.175z M222.521,77.021v37.765c-57.195,4.816-102.92,50.541-107.737,107.736H77.02 C81.984,144.547,144.547,81.984,222.521,77.021z M77.02,242.521h37.764c4.816,57.194,50.542,102.92,107.737,107.736v37.765 C144.547,383.059,81.984,320.496,77.02,242.521z M242.521,388.023v-37.765c57.194-4.816,102.919-50.542,107.735-107.736h37.765 C383.058,320.496,320.496,383.059,242.521,388.023z"/></svg>