<svg id="Layer_24" data-name="Layer 24" xmlns="http://www.w3.org/2000/svg" viewBox="0 0 32 43"><defs><style>.cls-1{fill:#5f6f7a;}</style></defs><title>tasks</title><path class="cls-1" d="M25,33H7a1,1,0,0,0,0,2H25a1,1,0,0,0,0-2Z"/><path class="cls-1" d="M25,27H7a1,1,0,0,0,0,2H25a1,1,0,0,0,0-2Z"/><path class="cls-1" d="M25,21H7a1,1,0,0,0,0,2H25a1,1,0,0,0,0-2Z"/><path class="cls-1" d="M25,15H7a1,1,0,0,0,0,2H25a1,1,0,0,0,0-2Z"/><path class="cls-1" d="M30,5H26a2,2,0,0,0-2-2H19.86a4,4,0,0,0-7.72,0H8A2,2,0,0,0,6,5H2A2,2,0,0,0,0,7V41a2,2,0,0,0,2,2H30a2,2,0,0,0,2-2V7A2,2,0,0,0,30,5ZM8,5h5a1,1,0,0,0,1-1,2,2,0,0,1,4,0,1,1,0,0,0,1,1h5V8H8ZM30,41H2V7H6V8a2,2,0,0,0,2,2H24a2,2,0,0,0,2-2V7h4Z"/></svg>