<?xml version="1.0" encoding="UTF-8" standalone="no"?>
<!-- Created with Inkscape (http://www.inkscape.org/) -->

<svg
   version="1.1"
   id="svg2"
   xml:space="preserve"
   width="1217.3333"
   height="682.66669"
   viewBox="0 0 1217.3333 682.66669"
   sodipodi:docname="Lagoon Horizontal Logo.svg"
   inkscape:version="1.1.2 (0a00cf5339, 2022-02-04)"
   xmlns:inkscape="http://www.inkscape.org/namespaces/inkscape"
   xmlns:sodipodi="http://sodipodi.sourceforge.net/DTD/sodipodi-0.dtd"
   xmlns="http://www.w3.org/2000/svg"
   xmlns:svg="http://www.w3.org/2000/svg"><defs
     id="defs6"><linearGradient
       x1="0"
       y1="0"
       x2="1"
       y2="0"
       gradientUnits="userSpaceOnUse"
       gradientTransform="matrix(437.10886,0,0,-437.10886,424.27145,246.74187)"
       spreadMethod="pad"
       id="linearGradient26"><stop
         style="stop-opacity:1;stop-color:#00aeef"
         offset="0"
         id="stop22" /><stop
         style="stop-opacity:1;stop-color:#2b3990"
         offset="1"
         id="stop24" /></linearGradient><linearGradient
       x1="0"
       y1="0"
       x2="1"
       y2="0"
       gradientUnits="userSpaceOnUse"
       gradientTransform="matrix(87.024345,87.024345,87.024345,-87.024345,244.84143,223.63229)"
       spreadMethod="pad"
       id="linearGradient48"><stop
         style="stop-opacity:1;stop-color:#4578e6"
         offset="0"
         id="stop42" /><stop
         style="stop-opacity:1;stop-color:#2bc0e4"
         offset="0.9"
         id="stop44" /><stop
         style="stop-opacity:1;stop-color:#2bc0e4"
         offset="1"
         id="stop46" /></linearGradient><linearGradient
       x1="0"
       y1="0"
       x2="1"
       y2="0"
       gradientUnits="userSpaceOnUse"
       gradientTransform="matrix(-107.33508,-127.91696,-127.91696,107.33508,235.22551,244.94167)"
       spreadMethod="pad"
       id="linearGradient70"><stop
         style="stop-opacity:1;stop-color:#4578e6"
         offset="0"
         id="stop64" /><stop
         style="stop-opacity:1;stop-color:#262d65"
         offset="0.75"
         id="stop66" /><stop
         style="stop-opacity:1;stop-color:#262d65"
         offset="1"
         id="stop68" /></linearGradient><linearGradient
       x1="0"
       y1="0"
       x2="1"
       y2="0"
       gradientUnits="userSpaceOnUse"
       gradientTransform="matrix(-177.45361,-177.45361,-177.45361,177.45361,205.29872,382.25812)"
       spreadMethod="pad"
       id="linearGradient94"><stop
         style="stop-opacity:1;stop-color:#4578e6"
         offset="0"
         id="stop86" /><stop
         style="stop-opacity:1;stop-color:#4578e6"
         offset="0.15"
         id="stop88" /><stop
         style="stop-opacity:1;stop-color:#262d65"
         offset="0.95"
         id="stop90" /><stop
         style="stop-opacity:1;stop-color:#262d65"
         offset="1"
         id="stop92" /></linearGradient><linearGradient
       x1="0"
       y1="0"
       x2="1"
       y2="0"
       gradientUnits="userSpaceOnUse"
       gradientTransform="matrix(110.31599,0,0,-110.31599,201.17799,330.99384)"
       spreadMethod="pad"
       id="linearGradient116"><stop
         style="stop-opacity:1;stop-color:#4578e6"
         offset="0"
         id="stop110" /><stop
         style="stop-opacity:1;stop-color:#2bc0e4"
         offset="0.55"
         id="stop112" /><stop
         style="stop-opacity:1;stop-color:#2bc0e4"
         offset="1"
         id="stop114" /></linearGradient></defs><sodipodi:namedview
     id="namedview4"
     pagecolor="#ffffff"
     bordercolor="#666666"
     borderopacity="1.0"
     inkscape:pageshadow="2"
     inkscape:pageopacity="0.0"
     inkscape:pagecheckerboard="0"
     showgrid="false"
     inkscape:zoom="1.0711939"
     inkscape:cx="608.66663"
     inkscape:cy="341.67482"
     inkscape:window-width="2560"
     inkscape:window-height="973"
     inkscape:window-x="0"
     inkscape:window-y="0"
     inkscape:window-maximized="1"
     inkscape:current-layer="g8" /><g
     id="g8"
     inkscape:groupmode="layer"
     inkscape:label="Lagoon Horizontal Logo"
     transform="matrix(1.3333333,0,0,-1.3333333,0,682.66667)"><g
       id="g12"><g
         id="g18"><g
           id="g20"><path
             d="m 424.272,202.894 h 17.094 v 118.219 l -17.094,9.898 z m 390.533,67.166 v 6.838 h -17.171 v -74.004 h 17.171 v 35.71 c 0,9.219 1.165,15.677 3.495,19.375 v 0 c 2.38,3.748 6.408,5.623 12.08,5.623 v 0 c 5.217,0 8.814,-1.418 10.79,-4.255 v 0 c 2.026,-2.786 3.039,-7.827 3.039,-15.12 v 0 -41.333 h 17.171 v 45.36 c 0,10.435 -2.077,17.956 -6.23,22.566 v 0 c -4.813,5.42 -11.523,8.13 -20.134,8.13 v 0 c -7.498,0 -14.235,-2.964 -20.211,-8.89 m -94.944,-2.355 c -7.648,-7.497 -11.472,-16.591 -11.472,-27.277 v 0 c 0,-11.347 3.748,-20.769 11.245,-28.264 v 0 c 7.495,-7.599 16.791,-11.397 27.884,-11.397 v 0 c 11.194,0 20.64,3.722 28.34,11.169 v 0 c 7.648,7.496 11.473,16.792 11.473,27.884 v 0 c 0,10.99 -3.799,20.26 -11.398,27.808 v 0 c -7.699,7.548 -17.069,11.322 -28.111,11.322 v 0 c -10.992,0 -20.313,-3.75 -27.961,-11.245 m 11.929,-45.131 c -3.951,4.302 -5.927,10.153 -5.927,17.55 v 0 c 0,6.887 2.025,12.51 6.079,16.867 v 0 c 4.052,4.356 9.345,6.534 15.88,6.534 v 0 c 6.635,0 11.978,-2.178 16.031,-6.534 v 0 c 4.001,-4.305 6.002,-10.055 6.002,-17.247 v 0 c 0,-7.192 -2.001,-12.942 -6.002,-17.247 v 0 c -4.002,-4.306 -9.345,-6.459 -16.031,-6.459 v 0 c -6.637,0 -11.98,2.178 -16.032,6.536 m -97.679,45.131 c -7.649,-7.497 -11.473,-16.591 -11.473,-27.277 v 0 c 0,-11.347 3.748,-20.769 11.245,-28.264 v 0 c 7.496,-7.599 16.791,-11.397 27.884,-11.397 v 0 c 11.194,0 20.64,3.722 28.34,11.169 v 0 c 7.648,7.496 11.474,16.792 11.474,27.884 v 0 c 0,10.99 -3.8,20.26 -11.397,27.808 v 0 c -7.701,7.548 -17.07,11.322 -28.113,11.322 v 0 c -10.991,0 -20.313,-3.75 -27.96,-11.245 m 11.929,-45.131 c -3.951,4.302 -5.927,10.153 -5.927,17.55 v 0 c 0,6.887 2.025,12.51 6.079,16.867 v 0 c 4.052,4.356 9.345,6.534 15.879,6.534 v 0 c 6.636,0 11.979,-2.178 16.032,-6.534 v 0 c 4.001,-4.305 6.002,-10.055 6.002,-17.247 v 0 c 0,-7.192 -2.001,-12.942 -6.002,-17.247 v 0 c -4.001,-4.306 -9.345,-6.459 -16.032,-6.459 v 0 c -6.636,0 -11.979,2.178 -16.031,6.536 m -99.73,44.37 c -6.029,-7.548 -9.042,-16.714 -9.042,-27.504 v 0 c 0,-11.092 3.24,-20.337 9.725,-27.732 v 0 c 6.432,-7.294 14.69,-10.941 24.769,-10.941 v 0 c 8.863,0 16.689,3.468 23.478,10.409 v 0 -10.333 c 0,-15.348 -6.257,-23.022 -18.767,-23.022 v 0 c -6.788,0 -11.955,2.306 -15.5,6.914 v 0 c -1.52,1.976 -2.609,4.786 -3.267,8.434 v 0 h -17.171 c 1.013,-9.675 4.812,-17.247 11.396,-22.718 v 0 c 6.383,-5.318 14.513,-7.978 24.39,-7.978 v 0 c 11.701,0 20.895,3.851 27.581,11.549 v 0 c 3.544,4.002 5.926,8.789 7.142,14.36 v 0 c 0.404,2.026 0.722,4.369 0.949,7.028 v 0 c 0.228,2.66 0.343,5.736 0.343,9.232 v 0 72.256 H 595.24 v -8.358 c -6.18,6.939 -13.93,10.41 -23.25,10.41 v 0 c -10.637,0 -19.197,-4.003 -25.68,-12.006 m 13.523,-43.839 c -3.393,4.304 -5.09,9.827 -5.09,16.563 v 0 c 0,6.837 1.697,12.41 5.09,16.716 v 0 c 3.749,4.812 8.863,7.218 15.349,7.218 v 0 c 6.078,0 11.066,-2.203 14.968,-6.611 v 0 c 3.848,-4.305 5.774,-10.055 5.774,-17.247 v 0 c 0,-6.738 -1.748,-12.259 -5.243,-16.563 v 0 c -3.799,-4.762 -8.965,-7.143 -15.499,-7.143 v 0 c -6.535,0 -11.652,2.355 -15.349,7.067 m -98.134,44.751 c -6.637,-7.396 -9.953,-16.639 -9.953,-27.732 v 0 c 0,-11.296 3.316,-20.717 9.953,-28.265 v 0 c 6.686,-7.395 15.145,-11.092 25.377,-11.092 v 0 c 8.103,0 15.677,3.293 22.718,9.876 v 0 -7.749 h 17.17 v 74.004 h -17.17 v -8.586 c -6.838,7.092 -14.563,10.638 -23.174,10.638 v 0 c -9.979,0 -18.285,-3.699 -24.921,-11.094 m 13.22,-45.056 c -3.799,4.457 -5.699,10.232 -5.699,17.324 v 0 c 0,6.636 1.95,12.206 5.851,16.715 v 0 c 3.951,4.457 8.864,6.686 14.74,6.686 v 0 c 6.23,0 11.295,-2.203 15.196,-6.609 v 0 c 3.9,-4.51 5.85,-10.232 5.85,-17.172 v 0 c 0,-6.94 -1.95,-12.663 -5.85,-17.17 v 0 c -3.901,-4.358 -9.016,-6.536 -15.348,-6.536 v 0 c -5.926,0 -10.84,2.254 -14.74,6.762"
             style="fill:url(#linearGradient26);stroke:none"
             id="path28" /></g></g></g><g
       id="g30"><g
         id="g32"><g
           id="g38"><g
             id="g40"><path
               d="m 258.268,301.926 -57.09,-34.63 110.317,-64.338 v 128.07 z"
               style="fill:url(#linearGradient48);stroke:none"
               id="path50" /></g></g></g></g><g
       id="g52"><g
         id="g54"><g
           id="g60"><g
             id="g62"><path
               d="M 138.505,235.021 51.66,180.99 181.642,106 311.456,180.977 181.557,256.02 Z"
               style="fill:url(#linearGradient70);stroke:none"
               id="path72" /></g></g></g></g><g
       id="g74"><g
         id="g76"><g
           id="g82"><g
             id="g84"><path
               d="M 51.62,331.075 51.66,180.99 181.557,256.02 V 406 Z"
               style="fill:url(#linearGradient94);stroke:none"
               id="path96" /></g></g></g></g><g
       id="g98"><g
         id="g100"><g
           id="g106"><g
             id="g108"><path
               d="m 201.178,267.296 110.317,63.732 -110.317,63.664 z"
               style="fill:url(#linearGradient116);stroke:none"
               id="path118" /></g></g></g></g></g></svg>
