<svg id="Layer_4" data-name="Layer 4" xmlns="http://www.w3.org/2000/svg" viewBox="0 0 29.86 38.83"><defs><style>.cls-1{fill:#5f6f7a;}</style></defs><title>branch</title><path class="cls-1" d="M29.86,5.09a5,5,0,1,0-6.1,5c-.4,6.09-5,7.23-9.8,8.42C11.1,19.2,8,20,6.06,22V10.08A5.1,5.1,0,0,0,5,0a5.1,5.1,0,0,0-1,10.09V28.74A5.1,5.1,0,0,0,5,38.83a5.1,5.1,0,0,0,1-10.08V27.41c0-4.67,3.18-5.7,8.37-7,4.88-1.2,10.88-2.71,11.32-10.35A5.08,5.08,0,0,0,29.86,5.09ZM2,5.09A3.07,3.07,0,0,1,5,2,3.1,3.1,0,0,1,5,8.19,3.07,3.07,0,0,1,2,5.09ZM8.07,33.73a3.07,3.07,0,0,1-3,3.1,3.1,3.1,0,0,1,0-6.19A3.07,3.07,0,0,1,8.07,33.73ZM24.82,8.19a3.07,3.07,0,0,1-3-3.1,3,3,0,1,1,6.07,0A3.07,3.07,0,0,1,24.82,8.19Z"/></svg>