<svg id="Layer_25" data-name="Layer 25" xmlns="http://www.w3.org/2000/svg" viewBox="0 0 34 34"><defs><style>.cls-1{fill:#5f6f7a;}</style></defs><title>command</title><path class="cls-1" d="M26,22a1,1,0,0,1-1,1H17a1,1,0,0,1,0-2h8A1,1,0,0,1,26,22ZM15.71,16.29l-6-6a1,1,0,0,0-1.42,1.42L13.59,17l-5.3,5.29a1,1,0,0,0,0,1.42,1,1,0,0,0,1.42,0l6-6A1,1,0,0,0,15.71,16.29ZM34,3V31a3,3,0,0,1-3,3H3a3,3,0,0,1-3-3V3A3,3,0,0,1,3,0H31A3,3,0,0,1,34,3ZM32,3a1,1,0,0,0-1-1H3A1,1,0,0,0,2,3V31a1,1,0,0,0,1,1H31a1,1,0,0,0,1-1Z"/></svg>