<svg id="Layer_15" data-name="Layer 15" xmlns="http://www.w3.org/2000/svg" viewBox="0 0 40 38.17"><defs><style>.cls-1{fill:#5f6f7a;}</style></defs><title>environments</title><path class="cls-1" d="M39,36.17H31V29.24a5.45,5.45,0,0,0,4.2-1.9c1.5-2,.94-5,.12-8-.17-.63-.33-1.25-.49-1.85-1.07-4-2-7.53-4.82-7.53a3.24,3.24,0,0,0-2.72,1.63l-.16-.55C25.48,5.13,24.07,0,20,0c-2.94,0-4.49,2.7-5.74,6.44A3.77,3.77,0,0,0,11,4.18c-3.2,0-4.2,4-5.47,9-.19.73-.38,1.49-.58,2.25C4,19,3.35,22.67,5.11,25c1,1.29,2.61,2,4.9,2.16,0,0,0,0,0,0v9H1a1,1,0,0,0,0,2H39a1,1,0,0,0,0-2ZM21,28.31a12.85,12.85,0,0,0,4-.73,5.67,5.67,0,0,0,4,1.66v6.93H21ZM30,12c1.29,0,2.07,2.94,2.88,6,.16.61.33,1.24.5,1.87.66,2.36,1.19,4.94.22,6.22-.58.77-1.79,1.15-3.6,1.15a5.45,5.45,0,0,1-3.17-.72,6,6,0,0,0,1.07-1.07c2-2.69,1.35-6.79.2-10.9C28.89,12.31,29.53,12,30,12ZM20,2c2.54,0,3.76,4.45,5.18,9.61.26.92.52,1.87.8,2.84,1.06,3.66,1.92,7.69.31,9.84-1,1.38-3.09,2.05-6.29,2.05s-5.26-.67-6.3-2.05c-1.61-2.13-.74-6.17.33-9.84.28-1,.54-1.93.8-2.86C16.25,6.44,17.48,2,20,2ZM6.7,23.75c-1.24-1.62-.6-4.86.19-7.82.21-.78.4-1.54.59-2.28,1-3.84,1.89-7.47,3.53-7.47.54,0,1.36.32,2.31,3.09l.06.1c-.16.55-.31,1.11-.47,1.69-.25.92-.52,1.87-.79,2.83-1.21,4.17-2.06,8.39-.26,11.23-.27,0-.54,0-.85,0C8.84,25.16,7.43,24.7,6.7,23.75ZM12,27.11a11.36,11.36,0,0,0,1.65-.22A10.71,10.71,0,0,0,19,28.31v7.86H12v-9S12,27.13,12,27.11Z"/></svg>