<svg id="Layer_12" data-name="Layer 12" xmlns="http://www.w3.org/2000/svg" viewBox="0 0 76.44 97.46"><defs><style>.cls-1{fill:#ebecef;}</style></defs><title>environment-branch</title><path class="cls-1" d="M76.44,13.16a13.2,13.2,0,1,0-16.3,12.78c-1.16,14.36-12,17-24.48,20-6.95,1.68-14.42,3.49-19.46,8V26a13.2,13.2,0,1,0-6,0V71.49a13.19,13.19,0,1,0,6,0v-2.9c0-11.21,7.93-13.69,20.86-16.82,12.44-3,27.78-6.71,29.08-25.78A13.18,13.18,0,0,0,76.44,13.16ZM6,13.16a7.2,7.2,0,1,1,7.2,7.16A7.19,7.19,0,0,1,6,13.16ZM20.39,84.29a7.2,7.2,0,1,1-7.19-7.16A7.19,7.19,0,0,1,20.39,84.29Zm42.85-64a7.16,7.16,0,1,1,7.2-7.16A7.18,7.18,0,0,1,63.24,20.32Z"/></svg>