<svg id="Layer_2" data-name="Layer 2" xmlns="http://www.w3.org/2000/svg" viewBox="0 0 38 34"><defs><style>.cls-1{fill:#5f6f7a;}</style></defs><title>git-lab</title><path class="cls-1" d="M37.94,19.65l-7-19a1,1,0,0,0-1.89,0L24.82,13H13.18L9,.67A1,1,0,0,0,8,0a1.06,1.06,0,0,0-1,.65l-7,19a1,1,0,0,0,.35,1.16l18,13,.11,0,.09,0,.08,0a1,1,0,0,0,.62,0l.08,0,.09,0,.11,0,18-13A1,1,0,0,0,37.94,19.65ZM30,4l3.32,9H26.93Zm1.91,11L21.86,27.77,26.24,15Zm-7.81,0L19,29.92,13.87,15Zm-8,12.77L6.06,15h5.7ZM8,4l3.1,9H4.64ZM3.78,15.34,13.77,28,2.2,19.63ZM24.23,28l10-12.65,1.58,4.29Z"/></svg>