<svg id="Layer_3" data-name="Layer 3" xmlns="http://www.w3.org/2000/svg" viewBox="0 0 42.34 42.31"><defs><style>.cls-1{fill:#5f6f7a;}</style></defs><title>git</title><path class="cls-1" d="M41.55,19.24,23.07.76a2.76,2.76,0,0,0-3.8,0L.79,19.24A2.68,2.68,0,0,0,0,21.14,2.65,2.65,0,0,0,.79,23L19.27,41.52a2.68,2.68,0,0,0,3.8,0L41.55,23A2.69,2.69,0,0,0,41.55,19.24Zm-1.41,2.39L21.65,40.11a.68.68,0,0,1-1,0L2.2,21.63a.69.69,0,0,1,0-1l13-13L17.65,10a4.07,4.07,0,0,0-.59,2.1,4.12,4.12,0,0,0,3.11,4V26.17a4.11,4.11,0,1,0,2,0v-10a4.27,4.27,0,0,0,1.1-.46L26.65,19a4.11,4.11,0,1,0,7.63,2.1,4.08,4.08,0,0,0-6.21-3.51l-3.39-3.39a4.05,4.05,0,0,0,.6-2.1,4.08,4.08,0,0,0-6.21-3.51L16.65,6.21l4-4A.71.71,0,0,1,21.17,2a.68.68,0,0,1,.48.21L40.14,20.66A.7.7,0,0,1,40.14,21.63Zm-19-7.38a2.11,2.11,0,1,1,2.11-2.11A2.1,2.1,0,0,1,21.17,14.25Zm0,13.78a2.11,2.11,0,1,1-2.11,2.11A2.12,2.12,0,0,1,21.17,28Zm9-9a2.11,2.11,0,1,1-2.11,2.11A2.12,2.12,0,0,1,30.17,19Z"/></svg>