<svg id="Layer_26" data-name="Layer 26" xmlns="http://www.w3.org/2000/svg" viewBox="0 0 34 42"><defs><style>.cls-1{fill:#5f6f7a;}</style></defs><title>service</title><path class="cls-1" d="M34,12.91s0-.07,0-.1a1.31,1.31,0,0,0-.09-.28s0,0,0,0a.85.85,0,0,0-.24-.26l0,0L17.6.2a1,1,0,0,0-1.2,0l-16,12,0,0a.85.85,0,0,0-.24.26s0,0,0,0a1.07,1.07,0,0,0-.09.27s0,.07,0,.1S0,13,0,13V29a1,1,0,0,0,.4.8l16,12,.06,0a.47.47,0,0,0,.09.06l.06,0A1,1,0,0,0,17,42h0a1.1,1.1,0,0,0,.39-.09l.1,0a.39.39,0,0,0,.11-.06l16-12A1,1,0,0,0,34,29V13S34,12.94,34,12.91ZM17,2.25,31.33,13,17,23.75,2.67,13ZM2,15,16,25.5V39L2,28.5ZM32,28.5,18,39V25.5L32,15Z"/></svg>