<svg width="100%" height="100%" viewBox="0 0 1698 629" version="1.1" xmlns="http://www.w3.org/2000/svg" xmlns:xlink="http://www.w3.org/1999/xlink" xml:space="preserve" style="fill-rule:evenodd;clip-rule:evenodd;stroke-linejoin:round;stroke-miterlimit:2;"><g><path d="M780.974,425.653l35.827,0l0,-247.753l-35.827,-20.743l0,268.496Zm818.449,-140.761l0,-14.33l-35.986,0l0,155.091l35.986,0l0,-74.839c0,-19.319 2.441,-32.854 7.325,-40.603c4.988,-7.856 13.429,-11.784 25.317,-11.784c10.933,0 18.471,2.973 22.611,8.917c4.245,5.838 6.37,16.401 6.37,31.687l0,86.622l35.986,0l0,-95.061c0,-21.868 -4.355,-37.631 -13.057,-47.292c-10.087,-11.358 -24.151,-17.038 -42.197,-17.038c-15.71,0 -29.831,6.21 -42.355,18.63Zm-198.975,4.937c-16.03,15.711 -24.045,34.767 -24.045,57.164c0,23.78 7.857,43.525 23.567,59.234c15.708,15.923 35.19,23.885 58.438,23.885c23.459,0 43.256,-7.802 59.394,-23.408c16.027,-15.708 24.043,-35.19 24.043,-58.437c0,-23.034 -7.962,-42.46 -23.885,-58.279c-16.137,-15.818 -35.774,-23.726 -58.916,-23.726c-23.034,0 -42.569,7.858 -58.596,23.567Zm24.998,94.582c-8.28,-9.019 -12.419,-21.28 -12.419,-36.782c0,-14.434 4.244,-26.218 12.738,-35.349c8.492,-9.129 19.586,-13.693 33.279,-13.693c13.907,0 25.104,4.564 33.599,13.693c8.383,9.023 12.579,21.074 12.579,36.146c0,15.074 -4.196,27.124 -12.579,36.145c-8.387,9.023 -19.586,13.535 -33.599,13.535c-13.908,0 -25.105,-4.562 -33.598,-13.695Zm-204.708,-94.582c-16.029,15.711 -24.043,34.767 -24.043,57.164c0,23.78 7.855,43.525 23.566,59.234c15.709,15.923 35.19,23.885 58.438,23.885c23.461,0 43.256,-7.802 59.393,-23.408c16.027,-15.708 24.044,-35.19 24.044,-58.437c0,-23.034 -7.961,-42.46 -23.885,-58.279c-16.136,-15.818 -35.773,-23.726 -58.914,-23.726c-23.036,0 -42.571,7.858 -58.599,23.567Zm25.001,94.582c-8.28,-9.019 -12.42,-21.28 -12.42,-36.782c0,-14.434 4.243,-26.218 12.738,-35.349c8.492,-9.129 19.585,-13.693 33.28,-13.693c13.905,0 25.102,4.564 33.597,13.693c8.384,9.023 12.579,21.074 12.579,36.146c0,15.074 -4.195,27.124 -12.579,36.145c-8.386,9.023 -19.585,13.535 -33.597,13.535c-13.909,0 -25.106,-4.562 -33.598,-13.695Zm-209.008,-92.989c-12.634,15.818 -18.949,35.029 -18.949,57.641c0,23.247 6.792,42.62 20.382,58.119c13.48,15.287 30.786,22.93 51.91,22.93c18.575,0 34.976,-7.27 49.203,-21.815l0,21.655c0,32.164 -13.112,48.248 -39.33,48.248c-14.228,0 -25.055,-4.834 -32.484,-14.49c-3.184,-4.141 -5.469,-10.033 -6.847,-17.676l-35.986,0c2.123,20.276 10.084,36.146 23.884,47.611c13.376,11.146 30.414,16.719 51.113,16.719c24.523,0 43.79,-8.068 57.802,-24.203c7.428,-8.386 12.42,-18.419 14.968,-30.095c0.848,-4.246 1.514,-9.156 1.989,-14.728c0.479,-5.574 0.717,-12.023 0.717,-19.347l0,-151.429l-35.826,0l0,17.515c-12.953,-14.543 -29.195,-21.815 -48.726,-21.815c-22.292,0 -40.232,8.387 -53.82,25.16Zm28.343,91.875c-7.111,-9.02 -10.668,-20.594 -10.668,-34.712c0,-14.331 3.557,-26.007 10.668,-35.031c7.856,-10.085 18.576,-15.127 32.166,-15.127c12.738,0 23.192,4.617 31.368,13.853c8.065,9.023 12.102,21.074 12.102,36.146c0,14.118 -3.663,25.691 -10.988,34.712c-7.961,9.979 -18.789,14.968 -32.482,14.968c-13.695,0 -24.418,-4.937 -32.166,-14.809Zm-205.662,-93.787c-13.909,15.502 -20.86,34.871 -20.86,58.119c0,23.673 6.951,43.417 20.86,59.235c14.012,15.499 31.739,23.248 53.183,23.248c16.983,0 32.854,-6.901 47.61,-20.7l0,16.241l35.986,0l0,-155.091l-35.986,0l0,17.993c-14.331,-14.862 -30.52,-22.293 -48.566,-22.293c-20.914,0 -38.321,7.749 -52.227,23.248Zm27.706,94.424c-7.963,-9.339 -11.943,-21.44 -11.943,-36.305c0,-13.906 4.086,-25.58 12.261,-35.029c8.28,-9.341 18.575,-14.013 30.891,-14.013c13.057,0 23.671,4.617 31.846,13.852c8.174,9.45 12.261,21.444 12.261,35.987c0,14.546 -4.087,26.538 -12.261,35.985c-8.175,9.133 -18.895,13.695 -32.165,13.695c-12.42,0 -22.717,-4.722 -30.89,-14.172Z" style="fill:#fff;fill-rule:nonzero;"/><path d="M433.076,218.112l-119.643,72.573l231.191,134.834l0,-268.4l-111.548,60.993Z" style="fill:#fff;fill-rule:nonzero;"/><path d="M182.089,358.324l-182.004,113.234l272.405,157.158l272.055,-157.13l-272.233,-157.271l-90.223,44.009Z" style="fill:#fff;fill-rule:nonzero;"/><path d="M0,157.023l0.085,314.535l272.227,-157.243l0,-314.315l-272.312,157.023Z" style="fill:#fff;fill-rule:nonzero;"/><path d="M313.433,290.685l231.191,-133.566l-231.192,-133.42l0.001,266.986Z" style="fill:#fff;fill-rule:nonzero;"/></g></svg>