<svg version="1.1" id="Layer_1" xmlns="http://www.w3.org/2000/svg" xmlns:xlink="http://www.w3.org/1999/xlink" x="0px" y="0px"
	 viewBox="0 0 1220 450" style="enable-background:new 0 0 1220 450;" xml:space="preserve">
<style type="text/css">
	.st0{fill:#FFFFFF;}
</style>
<path class="st0" d="M914.64,190.99c-16.29,0-30.1,5.56-41.44,16.66c-11.33,11.11-17,24.58-17,40.42c0,16.82,5.55,30.78,16.66,41.89
	c11.11,11.26,24.88,16.89,41.32,16.89c16.59,0,30.59-5.52,42-16.55c11.33-11.11,17-24.88,17-41.32c0-16.29-5.63-30.02-16.89-41.21
	C944.89,196.58,931,190.99,914.64,190.99z M938.4,274.65c-5.93,6.38-13.85,9.57-23.76,9.57c-9.83,0-17.75-3.23-23.76-9.68
	c-5.86-6.38-8.78-15.05-8.78-26.01c0-10.21,3-18.54,9.01-25c6-6.46,13.85-9.68,23.53-9.68c9.83,0,17.75,3.23,23.76,9.68
	c5.93,6.38,8.89,14.9,8.89,25.56C947.29,259.75,944.33,268.27,938.4,274.65z M688.98,206.75c-10.13-10.51-21.58-15.76-34.34-15.76
	c-14.79,0-27.1,5.48-36.93,16.44c-9.84,10.96-14.75,24.66-14.75,41.1c0,16.74,4.91,30.7,14.75,41.89
	c9.91,10.96,22.44,16.44,37.61,16.44c12.01,0,23.23-4.88,33.67-14.64v11.48h25.45V194.03h-25.45V206.75z M681.88,274.54
	c-5.78,6.46-13.36,9.68-22.74,9.68c-8.78,0-16.06-3.34-21.84-10.02c-5.63-6.6-8.44-15.16-8.44-25.67c0-9.83,2.89-18.09,8.67-24.77
	c5.86-6.6,13.13-9.91,21.84-9.91c9.23,0,16.74,3.27,22.52,9.8c5.78,6.68,8.67,15.16,8.67,25.45
	C690.55,259.38,687.66,267.86,681.88,274.54z M562.24,113.84l25.33,14.67V303.7h-25.33V113.84z M1041.72,190.99
	c-16.29,0-30.1,5.56-41.44,16.66c-11.33,11.11-17,24.58-17,40.42c0,16.82,5.55,30.78,16.66,41.89
	c11.11,11.26,24.88,16.89,41.32,16.89c16.59,0,30.59-5.52,42-16.55c11.33-11.11,17-24.88,17-41.32c0-16.29-5.63-30.02-16.89-41.21
	C1071.96,196.58,1058.08,190.99,1041.72,190.99z M1065.47,274.65c-5.93,6.38-13.85,9.57-23.76,9.57c-9.84,0-17.75-3.23-23.76-9.68
	c-5.85-6.38-8.78-15.05-8.78-26.01c0-10.21,3-18.54,9.01-25c6.01-6.46,13.85-9.68,23.53-9.68c9.83,0,17.75,3.23,23.76,9.68
	c5.93,6.38,8.89,14.9,8.89,25.56C1074.37,259.75,1071.4,268.27,1065.47,274.65z M815.6,206.42c-9.16-10.28-20.64-15.43-34.45-15.43
	c-15.76,0-28.45,5.93-38.06,17.79c-8.93,11.19-13.4,24.77-13.4,40.76c0,16.44,4.8,30.14,14.41,41.1
	c9.53,10.81,21.77,16.21,36.71,16.21c13.13,0,24.73-5.14,34.79-15.43v15.31c0,22.74-9.27,34.12-27.81,34.12
	c-10.06,0-17.72-3.42-22.97-10.25c-2.25-2.93-3.87-7.09-4.84-12.5h-25.45c1.5,14.34,7.13,25.56,16.89,33.67
	c9.46,7.88,21.51,11.82,36.14,11.82c17.34,0,30.96-5.7,40.87-17.11c5.25-5.93,8.78-13.02,10.58-21.28c0.6-3,1.07-6.47,1.41-10.41
	c0.34-3.94,0.51-8.5,0.51-13.68V194.03H815.6V206.42z M808.85,273.64c-5.63,7.06-13.29,10.58-22.97,10.58s-17.27-3.49-22.74-10.47
	c-5.03-6.38-7.54-14.56-7.54-24.55c0-10.13,2.51-18.39,7.54-24.77c5.55-7.13,13.13-10.7,22.74-10.7c9.01,0,16.4,3.27,22.18,9.8
	c5.7,6.38,8.56,14.9,8.56,25.56C816.61,259.07,814.03,267.26,808.85,273.64z M1210,236.48v67.22h-25.45v-61.25
	c0-10.81-1.5-18.28-4.5-22.41c-2.93-4.2-8.26-6.31-15.99-6.31c-8.41,0-14.37,2.78-17.9,8.33c-3.45,5.48-5.18,15.05-5.18,28.71v52.92
	h-25.45V194.03h25.45v10.13c8.86-8.78,18.84-13.17,29.95-13.17c12.76,0,22.71,4.02,29.84,12.05
	C1206.92,209.87,1210,221.02,1210,236.48z M202.56,224.97l192.5,111.21L202.68,447.29L10.06,336.16L10,113.75L202.56,2.71V224.97z
	 M231.63,19.47l163.48,94.34V303.6l-163.48-95.34V19.47z"/>
</svg>
